<?xml version="1.0" encoding="utf-8"?>
<!-- Generator: Adobe Illustrator 25.2.1, SVG Export Plug-In . SVG Version: 6.00 Build 0)  -->
<svg version="1.2" baseProfile="tiny" id="Livello_1"
	 xmlns="http://www.w3.org/2000/svg" xmlns:xlink="http://www.w3.org/1999/xlink" x="0px" y="0px" viewBox="0 0 150 120"
	 overflow="visible" xml:space="preserve">
<g>
	<g>
		<g>
			<path fill="#FFFFFF" d="M4.14,117.7c-0.07,0-0.14-0.07-0.14-0.14v-6.62c0-0.07,0.07-0.14,0.14-0.14h5.01
				c0.07,0,0.16,0.09,0.16,0.16v0.55c0,0.07-0.09,0.16-0.16,0.16H5.01v2.25h3.68c0.07,0,0.16,0.09,0.16,0.16v0.55
				c0,0.07-0.09,0.16-0.16,0.16H5.01v2.76c0,0.07-0.07,0.14-0.14,0.14H4.14z"/>
			<path fill="#FFFFFF" d="M17.37,116.27h-3.83l-0.63,1.28c-0.08,0.15-0.1,0.15-0.24,0.15h-0.75c-0.07,0-0.1-0.05-0.1-0.08
				c0-0.03,0.03-0.09,0.06-0.14l3.38-6.68h0.41l3.38,6.68c0.02,0.05,0.06,0.1,0.06,0.14c0,0.04-0.03,0.08-0.1,0.08h-0.75
				c-0.14,0-0.16,0-0.24-0.15L17.37,116.27z M13.98,115.4h2.95l-0.92-1.84c-0.17-0.34-0.52-1.26-0.52-1.26h-0.07
				c0,0-0.34,0.92-0.52,1.26L13.98,115.4z"/>
			<path fill="#FFFFFF" d="M23.61,115.37c0.13,0,0.16,0.06,0.16,0.16c0,0.85,0.6,1.4,2.16,1.4c1.43,0,1.93-0.6,1.93-1.32
				c0-0.41-0.24-0.85-1.17-0.92l-1.92-0.14c-1.39-0.12-2.01-0.74-2.01-1.7c0-1.05,0.91-2.17,2.92-2.17c2.14,0,2.91,0.98,2.91,2.16
				c0,0.06-0.05,0.12-0.17,0.12h-0.68c-0.11,0-0.16-0.03-0.17-0.2c-0.06-0.6-0.54-1.21-1.88-1.21c-1.18,0-1.91,0.56-1.91,1.3
				c0,0.41,0.28,0.77,1.09,0.83l1.89,0.14c1.57,0.13,2.13,0.9,2.13,1.79c0,0.93-0.78,2.2-2.94,2.2c-2.1,0-3.17-0.99-3.17-2.2v-0.12
				c0-0.08,0.03-0.13,0.14-0.13H23.61z"/>
			<path fill="#FFFFFF" d="M32.3,111.51v-0.55c0-0.07,0.09-0.16,0.16-0.16h6.46c0.07,0,0.16,0.09,0.16,0.16v0.55
				c0,0.07-0.09,0.16-0.16,0.16H36.2v5.89c0,0.07-0.07,0.14-0.14,0.14h-0.74c-0.07,0-0.14-0.07-0.14-0.14v-5.89h-2.72
				C32.39,111.67,32.3,111.58,32.3,111.51z"/>
			<path fill="#FFFFFF" d="M53.4,116.27h-3.83l-0.63,1.28c-0.08,0.15-0.1,0.15-0.24,0.15h-0.75c-0.07,0-0.1-0.05-0.1-0.08
				c0-0.03,0.03-0.09,0.06-0.14l3.38-6.68h0.41l3.38,6.68c0.02,0.05,0.06,0.1,0.06,0.14c0,0.04-0.03,0.08-0.1,0.08h-0.75
				c-0.14,0-0.16,0-0.24-0.15L53.4,116.27z M50.01,115.4h2.95l-0.92-1.84c-0.17-0.34-0.52-1.26-0.52-1.26h-0.07
				c0,0-0.34,0.92-0.52,1.26L50.01,115.4z"/>
			<path fill="#FFFFFF" d="M60.69,112.96c-0.26-0.28-0.44-0.55-0.44-0.55h-0.03v5.15c0,0.07-0.07,0.14-0.14,0.14h-0.74
				c-0.07,0-0.14-0.07-0.14-0.14v-6.62c0-0.07,0.07-0.14,0.14-0.14h0.55l4.52,4.62c0.3,0.3,0.52,0.64,0.52,0.64h0.05v-5.13
				c0-0.07,0.07-0.14,0.14-0.14h0.74c0.07,0,0.14,0.07,0.14,0.14v6.62c0,0.07-0.07,0.14-0.14,0.14h-0.54L60.69,112.96z"/>
			<path fill="#FFFFFF" d="M71.07,117.7c-0.07,0-0.14-0.07-0.14-0.14v-6.62c0-0.07,0.07-0.14,0.14-0.14h2.84
				c2.1,0,3.72,1.32,3.72,3.45c0,2.09-1.37,3.45-3.7,3.45H71.07z M71.94,111.67v5.15h1.99c1.82,0,2.69-1,2.69-2.58
				c0-1.63-1.16-2.57-2.71-2.57H71.94z"/>
			<path fill="#FFFFFF" d="M88.05,115.37c0.13,0,0.16,0.06,0.16,0.16c0,0.85,0.6,1.4,2.16,1.4c1.43,0,1.93-0.6,1.93-1.32
				c0-0.41-0.24-0.85-1.17-0.92l-1.92-0.14c-1.39-0.12-2.01-0.74-2.01-1.7c0-1.05,0.91-2.17,2.92-2.17c2.14,0,2.91,0.98,2.91,2.16
				c0,0.06-0.05,0.12-0.17,0.12h-0.68c-0.12,0-0.16-0.03-0.17-0.2c-0.06-0.6-0.54-1.21-1.89-1.21c-1.18,0-1.91,0.56-1.91,1.3
				c0,0.41,0.28,0.77,1.09,0.83l1.89,0.14c1.57,0.13,2.13,0.9,2.13,1.79c0,0.93-0.78,2.2-2.94,2.2c-2.1,0-3.17-0.99-3.17-2.2v-0.12
				c0-0.08,0.03-0.13,0.14-0.13H88.05z"/>
			<path fill="#FFFFFF" d="M98.86,114.57v2.25h4.37c0.07,0,0.16,0.09,0.16,0.16v0.55c0,0.07-0.09,0.16-0.16,0.16h-5.24
				c-0.07,0-0.14-0.07-0.14-0.14v-6.62c0-0.07,0.07-0.14,0.14-0.14h5.13c0.07,0,0.16,0.09,0.16,0.16v0.55
				c0,0.07-0.09,0.16-0.16,0.16h-4.25v2.02h3.91c0.07,0,0.16,0.09,0.16,0.16v0.55c0,0.07-0.09,0.16-0.16,0.16H98.86z"/>
			<path fill="#FFFFFF" d="M113.09,113.44c-0.13,0-0.17-0.03-0.18-0.2c-0.07-0.92-0.84-1.69-2.25-1.69c-1.48,0-2.6,0.99-2.6,2.69
				c0,1.68,1.11,2.69,2.6,2.69c1.4,0,2.16-0.67,2.25-1.56c0.01-0.17,0.05-0.21,0.2-0.21h0.64c0.07,0,0.18-0.02,0.18,0.09
				c0,1.37-1.21,2.55-3.28,2.55c-2.05,0-3.61-1.33-3.61-3.56c0-2.23,1.56-3.56,3.61-3.56c2.18,0,3.28,1.4,3.28,2.64
				c0,0.06-0.05,0.12-0.17,0.12H113.09z"/>
			<path fill="#FFFFFF" d="M124.13,110.94c0-0.07,0.07-0.14,0.14-0.14H125c0.07,0,0.14,0.07,0.14,0.14v3.54
				c0,2.23-1.34,3.33-3.4,3.33c-2.05,0-3.4-1.1-3.4-3.33v-3.54c0-0.07,0.07-0.14,0.14-0.14h0.74c0.07,0,0.14,0.07,0.14,0.14v3.54
				c0,1.68,0.91,2.46,2.39,2.46c1.51,0,2.39-0.78,2.39-2.46V110.94z"/>
			<path fill="#FFFFFF" d="M129.97,110.94c0-0.07,0.07-0.14,0.14-0.14h2.94c1.62,0,2.8,0.81,2.8,2.26c0,1.12-0.71,1.82-1.77,2.08
				v0.02c0,0,0.24,0.22,0.44,0.49l1.31,1.82c0.07,0.09,0.08,0.13,0.08,0.15c0,0.05-0.02,0.07-0.09,0.07h-0.94
				c-0.06,0-0.13-0.03-0.16-0.08l-1.7-2.36h-2.03v2.3c0,0.07-0.07,0.14-0.14,0.14h-0.74c-0.07,0-0.14-0.07-0.14-0.14V110.94z
				 M130.98,111.67v2.77h2.05c1.06,0,1.82-0.48,1.82-1.38c0-0.91-0.75-1.39-1.82-1.39H130.98z"/>
			<path fill="#FFFFFF" d="M141.4,114.57v2.25h4.37c0.07,0,0.16,0.09,0.16,0.16v0.55c0,0.07-0.09,0.16-0.16,0.16h-5.24
				c-0.07,0-0.14-0.07-0.14-0.14v-6.62c0-0.07,0.07-0.14,0.14-0.14h5.13c0.07,0,0.16,0.09,0.16,0.16v0.55
				c0,0.07-0.09,0.16-0.16,0.16h-4.25v2.02h3.91c0.07,0,0.16,0.09,0.16,0.16v0.55c0,0.07-0.09,0.16-0.16,0.16H141.4z"/>
		</g>
		<g>
			<path fill="#FFFFFF" d="M4.72,103.11c-0.4,0-0.72-0.33-0.72-0.72V67.63c0-0.4,0.33-0.72,0.72-0.72h27.16h0.84v0.95
				c0,3.26-2.67,7.06-5.93,7.06H12.21v5.99h17.62l0.85,0.04v0.92c0,3.26-2.67,6.43-5.93,6.43H12.21v14.1c0,0.4-0.33,0.72-0.72,0.72
				H4.72z"/>
			<path fill="#FFFFFF" d="M60.43,96.84H42.8l-2.6,5.49c-0.36,0.72-0.54,0.78-1.27,0.78h-7.18c-0.36,0-0.48-0.24-0.48-0.42
				c0-0.18,0.12-0.48,0.24-0.72L48.54,66.9h6.28l17.02,35.06c0.12,0.24,0.24,0.54,0.24,0.72c0,0.18-0.12,0.42-0.48,0.42h-7.18
				c-0.72,0-0.91-0.06-1.27-0.78L60.43,96.84z M51.86,77.28h-0.36L45.7,90.44h11.95L51.86,77.28z"/>
			<path fill="#FFFFFF" d="M82.09,90.92c0.72,0,1.09,0.3,1.21,0.91c0.6,3.08,3.2,5.01,8.93,5.01c5.79,0,8.39-2.17,8.39-4.77
				c0-1.69-1.21-3.2-4.83-3.5l-9.41-0.78c-7.36-0.6-11.29-3.98-11.29-9.42c0-6.28,5.49-12.07,16.17-12.07
				c11.04,0,15.87,5.13,15.87,10.92c0,0.54-0.42,1.03-1.15,1.03h-5.97c-0.6,0-0.97-0.18-1.09-0.91c-0.36-2.11-2.41-4.16-7.72-4.16
				c-5.07,0-7.91,2.05-7.91,4.71c0,1.63,1.09,2.84,4.41,3.08l9.35,0.78c8.45,0.72,11.77,4.95,11.77,9.96
				c0,5.67-4.89,12.01-16.6,12.01c-11.04,0-17.14-5.25-17.14-11.23v-0.48c0-0.6,0.48-1.09,1.15-1.09H82.09z"/>
			<path fill="#FFFFFF" d="M110.88,73.78c-0.36,0-0.84-0.48-0.84-0.85v-5.19c0-0.36,0.48-0.85,0.84-0.85h34.28
				c0.36,0,0.85,0.48,0.85,0.85v5.19c0,0.36-0.48,0.85-0.85,0.85h-13.04v28.61c0,0.36-0.36,0.72-0.72,0.72h-6.76
				c-0.36,0-0.72-0.36-0.72-0.72V73.78H110.88z"/>
		</g>
	</g>
	<g>
		<path fill="#FFFFFF" d="M52.53,20.96c-4.96-5.3-6.18-13.18-0.64-18.78L71.53,21.6c0.24-0.22,0.47-0.43,0.69-0.63
			c4.1-3.72,6.53-5.6,8.84-5.99c2.42-0.41,4.18,0.07,5.04,0.39c2.23,0.82,4.66,3.47,4.66,3.47l17.24,3.7c0,0-17.58-2.01-20.08,0.8
			c-2.12,2.38-3.79,6.7-6.2,10.77c-0.54,0.92-1.05,1.71-1.96,2.61c-5.21,5.21-13.1,4.26-20.14,5.01
			c-7.05,0.75-17.61,7.48-17.61,7.48s9.16-8.23,20.1-18.74L52.53,20.96z"/>
	</g>
	<g>
		<path fill="#FFFFFF" d="M89.58,34.02h-2.84c-0.92,4.43-4.43,8-8.97,8.9v2.84C83.88,44.79,88.59,39.98,89.58,34.02z"/>
		<path fill="#FFFFFF" d="M95.06,34.02h-2.67c-0.42,3.24-1.77,6.3-3.96,8.83c-2.75,3.19-6.52,5.18-10.67,5.7v2.69
			C86.94,50.24,94.04,42.95,95.06,34.02z"/>
	</g>
</g>
<g>
</g>
<g>
</g>
<g>
</g>
<g>
</g>
<g>
</g>
<g>
</g>
<g>
</g>
<g>
</g>
<g>
</g>
<g>
</g>
<g>
</g>
<g>
</g>
<g>
</g>
<g>
</g>
<g>
</g>
</svg>
